<mxfile host="app.diagrams.net" modified="2022-08-14T09:52:20.632Z" agent="5.0 (Windows NT 10.0; Win64; x64) AppleWebKit/537.36 (KHTML, like Gecko) Chrome/104.0.5112.81 Safari/537.36 Edg/104.0.1293.54" etag="AS6oAix2UXLhpc0FawUe" version="20.2.3" type="github">
  <diagram id="C5RBs43oDa-KdzZeNtuy" name="Page-1">
    <mxGraphModel dx="1749" dy="2005" grid="1" gridSize="10" guides="1" tooltips="1" connect="1" arrows="1" fold="1" page="1" pageScale="1" pageWidth="827" pageHeight="1169" math="0" shadow="0">
      <root>
        <mxCell id="WIyWlLk6GJQsqaUBKTNV-0" />
        <mxCell id="WIyWlLk6GJQsqaUBKTNV-1" parent="WIyWlLk6GJQsqaUBKTNV-0" />
        <mxCell id="_aAK8VjML0365NAgmLhZ-57" value="" style="edgeStyle=orthogonalEdgeStyle;rounded=0;orthogonalLoop=1;jettySize=auto;html=1;" edge="1" parent="WIyWlLk6GJQsqaUBKTNV-1" source="_aAK8VjML0365NAgmLhZ-4" target="_aAK8VjML0365NAgmLhZ-5">
          <mxGeometry relative="1" as="geometry" />
        </mxCell>
        <mxCell id="_aAK8VjML0365NAgmLhZ-4" value="&lt;b&gt;어플리케이션 실행&lt;/b&gt;" style="rounded=1;whiteSpace=wrap;html=1;fillColor=#CCCCCC;strokeColor=none;" vertex="1" parent="WIyWlLk6GJQsqaUBKTNV-1">
          <mxGeometry x="145" y="-859.9999999999999" width="120" height="50" as="geometry" />
        </mxCell>
        <mxCell id="_aAK8VjML0365NAgmLhZ-21" value="" style="edgeStyle=orthogonalEdgeStyle;rounded=0;orthogonalLoop=1;jettySize=auto;html=1;" edge="1" parent="WIyWlLk6GJQsqaUBKTNV-1" source="_aAK8VjML0365NAgmLhZ-5" target="_aAK8VjML0365NAgmLhZ-15">
          <mxGeometry relative="1" as="geometry" />
        </mxCell>
        <mxCell id="_aAK8VjML0365NAgmLhZ-5" value="총괄지 배분 받기 요청" style="rounded=1;whiteSpace=wrap;html=1;arcSize=0;" vertex="1" parent="WIyWlLk6GJQsqaUBKTNV-1">
          <mxGeometry x="137" y="-769.9999999999999" width="136" height="50" as="geometry" />
        </mxCell>
        <mxCell id="_aAK8VjML0365NAgmLhZ-64" style="edgeStyle=orthogonalEdgeStyle;rounded=0;orthogonalLoop=1;jettySize=auto;html=1;exitX=0.5;exitY=1;exitDx=0;exitDy=0;entryX=0.5;entryY=0;entryDx=0;entryDy=0;" edge="1" parent="WIyWlLk6GJQsqaUBKTNV-1" source="_aAK8VjML0365NAgmLhZ-6" target="_aAK8VjML0365NAgmLhZ-45">
          <mxGeometry relative="1" as="geometry">
            <Array as="points">
              <mxPoint x="205" y="-410" />
              <mxPoint x="321" y="-410" />
              <mxPoint x="321" y="-980" />
              <mxPoint x="565" y="-980" />
            </Array>
          </mxGeometry>
        </mxCell>
        <mxCell id="_aAK8VjML0365NAgmLhZ-6" value="피킹 작업 시작" style="rounded=1;whiteSpace=wrap;html=1;arcSize=0;" vertex="1" parent="WIyWlLk6GJQsqaUBKTNV-1">
          <mxGeometry x="145" y="-499.9999999999999" width="120" height="50" as="geometry" />
        </mxCell>
        <mxCell id="_aAK8VjML0365NAgmLhZ-54" value="" style="edgeStyle=orthogonalEdgeStyle;rounded=0;orthogonalLoop=1;jettySize=auto;html=1;" edge="1" parent="WIyWlLk6GJQsqaUBKTNV-1" source="_aAK8VjML0365NAgmLhZ-7" target="_aAK8VjML0365NAgmLhZ-25">
          <mxGeometry relative="1" as="geometry" />
        </mxCell>
        <mxCell id="_aAK8VjML0365NAgmLhZ-7" value="QR 코드 확인" style="rounded=1;whiteSpace=wrap;html=1;arcSize=0;" vertex="1" parent="WIyWlLk6GJQsqaUBKTNV-1">
          <mxGeometry x="504.93999999999994" y="-839.9999999999999" width="120" height="40" as="geometry" />
        </mxCell>
        <mxCell id="_aAK8VjML0365NAgmLhZ-8" value="&lt;b&gt;피킹 완료&lt;/b&gt;" style="rounded=1;whiteSpace=wrap;html=1;fillColor=#CCCCCC;strokeColor=none;" vertex="1" parent="WIyWlLk6GJQsqaUBKTNV-1">
          <mxGeometry x="504.93999999999994" y="-317" width="120" height="50" as="geometry" />
        </mxCell>
        <mxCell id="_aAK8VjML0365NAgmLhZ-20" value="" style="edgeStyle=orthogonalEdgeStyle;rounded=0;orthogonalLoop=1;jettySize=auto;html=1;" edge="1" parent="WIyWlLk6GJQsqaUBKTNV-1" source="_aAK8VjML0365NAgmLhZ-15" target="_aAK8VjML0365NAgmLhZ-18">
          <mxGeometry relative="1" as="geometry" />
        </mxCell>
        <mxCell id="_aAK8VjML0365NAgmLhZ-15" value="어플리케이션 서비스" style="rounded=1;whiteSpace=wrap;html=1;arcSize=0;" vertex="1" parent="WIyWlLk6GJQsqaUBKTNV-1">
          <mxGeometry x="138" y="-679.9999999999999" width="133" height="50" as="geometry" />
        </mxCell>
        <mxCell id="_aAK8VjML0365NAgmLhZ-22" value="" style="edgeStyle=orthogonalEdgeStyle;rounded=0;orthogonalLoop=1;jettySize=auto;html=1;" edge="1" parent="WIyWlLk6GJQsqaUBKTNV-1" source="_aAK8VjML0365NAgmLhZ-18" target="_aAK8VjML0365NAgmLhZ-6">
          <mxGeometry relative="1" as="geometry" />
        </mxCell>
        <mxCell id="_aAK8VjML0365NAgmLhZ-18" value="총괄지 배분" style="rounded=1;whiteSpace=wrap;html=1;arcSize=0;" vertex="1" parent="WIyWlLk6GJQsqaUBKTNV-1">
          <mxGeometry x="145" y="-589.9999999999999" width="120" height="50" as="geometry" />
        </mxCell>
        <mxCell id="_aAK8VjML0365NAgmLhZ-31" value="" style="edgeStyle=orthogonalEdgeStyle;rounded=0;orthogonalLoop=1;jettySize=auto;html=1;" edge="1" parent="WIyWlLk6GJQsqaUBKTNV-1" source="_aAK8VjML0365NAgmLhZ-25" target="_aAK8VjML0365NAgmLhZ-28">
          <mxGeometry relative="1" as="geometry" />
        </mxCell>
        <mxCell id="_aAK8VjML0365NAgmLhZ-25" value="어플리케이션 서비스" style="rounded=1;whiteSpace=wrap;html=1;arcSize=0;" vertex="1" parent="WIyWlLk6GJQsqaUBKTNV-1">
          <mxGeometry x="497.41" y="-760" width="135.06" height="50" as="geometry" />
        </mxCell>
        <mxCell id="_aAK8VjML0365NAgmLhZ-48" style="edgeStyle=orthogonalEdgeStyle;rounded=0;orthogonalLoop=1;jettySize=auto;html=1;exitX=0.5;exitY=1;exitDx=0;exitDy=0;entryX=0.5;entryY=0;entryDx=0;entryDy=0;" edge="1" parent="WIyWlLk6GJQsqaUBKTNV-1" source="_aAK8VjML0365NAgmLhZ-28" target="_aAK8VjML0365NAgmLhZ-29">
          <mxGeometry relative="1" as="geometry" />
        </mxCell>
        <mxCell id="_aAK8VjML0365NAgmLhZ-62" style="edgeStyle=orthogonalEdgeStyle;rounded=0;orthogonalLoop=1;jettySize=auto;html=1;exitX=1;exitY=0.5;exitDx=0;exitDy=0;entryX=1.003;entryY=0.424;entryDx=0;entryDy=0;entryPerimeter=0;" edge="1" parent="WIyWlLk6GJQsqaUBKTNV-1" source="_aAK8VjML0365NAgmLhZ-28" target="_aAK8VjML0365NAgmLhZ-45">
          <mxGeometry relative="1" as="geometry">
            <Array as="points">
              <mxPoint x="700" y="-619" />
              <mxPoint x="700" y="-909" />
            </Array>
          </mxGeometry>
        </mxCell>
        <mxCell id="_aAK8VjML0365NAgmLhZ-28" value="&lt;b&gt;상품 확인&lt;/b&gt;" style="rhombus;whiteSpace=wrap;html=1;fillColor=#CC99FF;strokeColor=none;" vertex="1" parent="WIyWlLk6GJQsqaUBKTNV-1">
          <mxGeometry x="480.93999999999994" y="-653.9999999999999" width="168" height="70" as="geometry" />
        </mxCell>
        <mxCell id="_aAK8VjML0365NAgmLhZ-49" value="" style="edgeStyle=orthogonalEdgeStyle;rounded=0;orthogonalLoop=1;jettySize=auto;html=1;" edge="1" parent="WIyWlLk6GJQsqaUBKTNV-1" source="_aAK8VjML0365NAgmLhZ-29" target="_aAK8VjML0365NAgmLhZ-41">
          <mxGeometry relative="1" as="geometry" />
        </mxCell>
        <mxCell id="_aAK8VjML0365NAgmLhZ-29" value="피킹" style="rounded=1;whiteSpace=wrap;html=1;arcSize=0;" vertex="1" parent="WIyWlLk6GJQsqaUBKTNV-1">
          <mxGeometry x="504.93999999999994" y="-536.9999999999999" width="120" height="50" as="geometry" />
        </mxCell>
        <mxCell id="_aAK8VjML0365NAgmLhZ-34" value="&lt;b&gt;맞음&lt;/b&gt;" style="text;html=1;strokeColor=none;fillColor=none;align=center;verticalAlign=middle;whiteSpace=wrap;rounded=0;" vertex="1" parent="WIyWlLk6GJQsqaUBKTNV-1">
          <mxGeometry x="515.05" y="-589.9999999999999" width="60" height="30" as="geometry" />
        </mxCell>
        <mxCell id="_aAK8VjML0365NAgmLhZ-35" value="&lt;b&gt;아님&lt;/b&gt;" style="text;html=1;strokeColor=none;fillColor=none;align=center;verticalAlign=middle;whiteSpace=wrap;rounded=0;" vertex="1" parent="WIyWlLk6GJQsqaUBKTNV-1">
          <mxGeometry x="620.05" y="-650.9999999999999" width="60" height="30" as="geometry" />
        </mxCell>
        <mxCell id="_aAK8VjML0365NAgmLhZ-53" value="" style="edgeStyle=orthogonalEdgeStyle;rounded=0;orthogonalLoop=1;jettySize=auto;html=1;" edge="1" parent="WIyWlLk6GJQsqaUBKTNV-1" source="_aAK8VjML0365NAgmLhZ-41" target="_aAK8VjML0365NAgmLhZ-8">
          <mxGeometry relative="1" as="geometry" />
        </mxCell>
        <mxCell id="_aAK8VjML0365NAgmLhZ-63" style="edgeStyle=orthogonalEdgeStyle;rounded=0;orthogonalLoop=1;jettySize=auto;html=1;exitX=0;exitY=0.5;exitDx=0;exitDy=0;entryX=0;entryY=0.5;entryDx=0;entryDy=0;" edge="1" parent="WIyWlLk6GJQsqaUBKTNV-1" source="_aAK8VjML0365NAgmLhZ-41">
          <mxGeometry relative="1" as="geometry">
            <mxPoint x="504.9400000000003" y="-911.9999999999998" as="targetPoint" />
            <Array as="points">
              <mxPoint x="411.04999999999995" y="-402" />
              <mxPoint x="411.04999999999995" y="-911.9999999999999" />
            </Array>
          </mxGeometry>
        </mxCell>
        <mxCell id="_aAK8VjML0365NAgmLhZ-41" value="&lt;b&gt;다음 상품 존재 확인&lt;/b&gt;" style="rhombus;whiteSpace=wrap;html=1;fillColor=#CC99FF;strokeColor=none;" vertex="1" parent="WIyWlLk6GJQsqaUBKTNV-1">
          <mxGeometry x="464.93999999999994" y="-442" width="200" height="80" as="geometry" />
        </mxCell>
        <mxCell id="_aAK8VjML0365NAgmLhZ-56" value="" style="edgeStyle=orthogonalEdgeStyle;rounded=0;orthogonalLoop=1;jettySize=auto;html=1;" edge="1" parent="WIyWlLk6GJQsqaUBKTNV-1" source="_aAK8VjML0365NAgmLhZ-45" target="_aAK8VjML0365NAgmLhZ-7">
          <mxGeometry relative="1" as="geometry" />
        </mxCell>
        <mxCell id="_aAK8VjML0365NAgmLhZ-45" value="피킹 상품 서칭" style="rounded=1;whiteSpace=wrap;html=1;arcSize=0;" vertex="1" parent="WIyWlLk6GJQsqaUBKTNV-1">
          <mxGeometry x="504.93999999999994" y="-929.9999999999999" width="120" height="50" as="geometry" />
        </mxCell>
        <mxCell id="_aAK8VjML0365NAgmLhZ-51" value="&lt;b&gt;있음&lt;/b&gt;" style="text;html=1;strokeColor=none;fillColor=none;align=center;verticalAlign=middle;whiteSpace=wrap;rounded=0;" vertex="1" parent="WIyWlLk6GJQsqaUBKTNV-1">
          <mxGeometry x="431.04999999999995" y="-434" width="60" height="30" as="geometry" />
        </mxCell>
        <mxCell id="_aAK8VjML0365NAgmLhZ-52" value="&lt;b&gt;없음&lt;/b&gt;" style="text;html=1;strokeColor=none;fillColor=none;align=center;verticalAlign=middle;whiteSpace=wrap;rounded=0;" vertex="1" parent="WIyWlLk6GJQsqaUBKTNV-1">
          <mxGeometry x="552.9399999999999" y="-367" width="60" height="30" as="geometry" />
        </mxCell>
      </root>
    </mxGraphModel>
  </diagram>
</mxfile>
